<svg width="24" height="25" viewBox="0 0 24 25" fill="none" xmlns="http://www.w3.org/2000/svg">
<path fill-rule="evenodd" clip-rule="evenodd" d="M7.01772 0.075C8.27737 0.0136363 8.67899 0 11.8877 0C15.0964 0 15.498 0.0147727 16.7566 0.075C18.0152 0.135227 18.8743 0.347727 19.626 0.655682C20.4131 0.970455 21.1272 1.4625 21.7178 2.09886C22.3192 2.72273 22.7831 3.47727 23.0795 4.31136C23.3716 5.10682 23.5713 6.01591 23.6293 7.34545C23.6873 8.68068 23.7002 9.10568 23.7002 12.5C23.7002 15.8955 23.6862 16.3205 23.6293 17.6534C23.5724 18.983 23.3716 19.892 23.0795 20.6875C22.7831 21.5217 22.3184 22.2775 21.7178 22.9023C21.1272 23.5386 20.4131 24.0295 19.626 24.3432C18.8743 24.6523 18.0152 24.8636 16.7587 24.925C15.498 24.9864 15.0964 25 11.8877 25C8.67899 25 8.27737 24.9852 7.01772 24.925C5.7613 24.8648 4.90221 24.6523 4.15051 24.3432C3.36221 24.0295 2.64798 23.5378 2.05755 22.9023C1.45659 22.278 0.991539 21.5226 0.694815 20.6886C0.403798 19.8932 0.204059 18.9841 0.14607 17.6545C0.0880817 16.3193 0.0751953 15.8943 0.0751953 12.5C0.0751953 9.10455 0.0891555 8.67955 0.14607 7.34773C0.202985 6.01591 0.403798 5.10682 0.694815 4.31136C0.991977 3.47737 1.45739 2.72195 2.05862 2.09773C2.64822 1.46193 3.36173 0.969822 4.14943 0.655682C4.90114 0.347727 5.76023 0.136364 7.01665 0.075H7.01772ZM16.661 2.325C15.4153 2.26477 15.0416 2.25227 11.8877 2.25227C8.73376 2.25227 8.36005 2.26477 7.11437 2.325C5.96212 2.38068 5.33713 2.58409 4.92047 2.75568C4.36958 2.98295 3.97547 3.25227 3.56203 3.68977C3.17012 4.09324 2.86851 4.58441 2.67931 5.12727C2.51716 5.56818 2.32494 6.22955 2.27232 7.44886C2.21541 8.76705 2.20359 9.1625 2.20359 12.5C2.20359 15.8375 2.21541 16.233 2.27232 17.5511C2.32494 18.7705 2.51716 19.4318 2.67931 19.8727C2.86831 20.4148 3.17007 20.9068 3.56203 21.3102C3.94325 21.725 4.40824 22.0443 4.92047 22.2443C5.33713 22.4159 5.96212 22.6193 7.11437 22.675C8.36005 22.7352 8.73268 22.7477 11.8877 22.7477C15.0427 22.7477 15.4153 22.7352 16.661 22.675C17.8133 22.6193 18.4383 22.4159 18.8549 22.2443C19.4058 22.017 19.7999 21.7477 20.2134 21.3102C20.6053 20.9068 20.9071 20.4148 21.0961 19.8727C21.2582 19.4318 21.4505 18.7705 21.5031 17.5511C21.56 16.233 21.5718 15.8375 21.5718 12.5C21.5718 9.1625 21.56 8.76705 21.5031 7.44886C21.4505 6.22955 21.2582 5.56818 21.0961 5.12727C20.8813 4.54432 20.6268 4.12727 20.2134 3.68977C19.8321 3.27508 19.3679 2.95592 18.8549 2.75568C18.4383 2.58409 17.8133 2.38068 16.661 2.325ZM10.3789 16.3534C11.2215 16.7246 12.1598 16.7747 13.0334 16.4951C13.9071 16.2156 14.6619 15.6238 15.169 14.8207C15.6761 14.0177 15.904 13.0533 15.8138 12.0922C15.7236 11.1311 15.3208 10.2329 14.6744 9.55114C14.2623 9.11531 13.764 8.7816 13.2153 8.57403C12.6667 8.36646 12.0815 8.29018 11.5016 8.3507C10.9218 8.41122 10.3619 8.60702 9.86218 8.92401C9.36246 9.241 8.93537 9.6713 8.61166 10.1839C8.28796 10.6965 8.07568 11.2787 7.99012 11.8886C7.90457 12.4984 7.94785 13.1208 8.11687 13.7108C8.28588 14.3008 8.57642 14.8439 8.96756 15.3008C9.3587 15.7578 9.84072 16.1173 10.3789 16.3534ZM7.59439 7.95682C8.15819 7.3602 8.82753 6.88694 9.56417 6.56405C10.3008 6.24116 11.0904 6.07497 11.8877 6.07497C12.685 6.07497 13.4746 6.24116 14.2112 6.56405C14.9479 6.88693 15.6172 7.3602 16.181 7.95682C16.7448 8.55344 17.192 9.26173 17.4972 10.0412C17.8023 10.8208 17.9593 11.6563 17.9593 12.5C17.9593 13.3437 17.8023 14.1792 17.4972 14.9588C17.192 15.7383 16.7448 16.4466 16.181 17.0432C15.0423 18.2481 13.498 18.925 11.8877 18.925C10.2774 18.925 8.73304 18.2481 7.59439 17.0432C6.45573 15.8383 5.81604 14.204 5.81604 12.5C5.81604 10.796 6.45573 9.16175 7.59439 7.95682ZM19.3059 7.03182C19.4457 6.89235 19.5575 6.72464 19.6349 6.53861C19.7122 6.35258 19.7535 6.15201 19.7563 5.94878C19.7591 5.74556 19.7234 5.5438 19.6512 5.35547C19.579 5.16713 19.4718 4.99603 19.336 4.85232C19.2002 4.7086 19.0385 4.59518 18.8605 4.51877C18.6825 4.44236 18.4919 4.40452 18.2998 4.40748C18.1078 4.41044 17.9182 4.45415 17.7424 4.53602C17.5666 4.61789 17.4081 4.73624 17.2763 4.88409C17.02 5.17162 16.8797 5.55355 16.8851 5.94878C16.8906 6.34402 17.0414 6.72145 17.3055 7.00096C17.5696 7.28046 17.9263 7.44003 18.2998 7.44579C18.6733 7.45156 19.0342 7.30306 19.3059 7.03182Z" fill="#537173"/>
<path fill-rule="evenodd" clip-rule="evenodd" d="M7.01772 0.075C8.27737 0.0136363 8.67899 0 11.8877 0C15.0964 0 15.498 0.0147727 16.7566 0.075C18.0152 0.135227 18.8743 0.347727 19.626 0.655682C20.4131 0.970455 21.1272 1.4625 21.7178 2.09886C22.3192 2.72273 22.7831 3.47727 23.0795 4.31136C23.3716 5.10682 23.5713 6.01591 23.6293 7.34545C23.6873 8.68068 23.7002 9.10568 23.7002 12.5C23.7002 15.8955 23.6862 16.3205 23.6293 17.6534C23.5724 18.983 23.3716 19.892 23.0795 20.6875C22.7831 21.5217 22.3184 22.2775 21.7178 22.9023C21.1272 23.5386 20.4131 24.0295 19.626 24.3432C18.8743 24.6523 18.0152 24.8636 16.7587 24.925C15.498 24.9864 15.0964 25 11.8877 25C8.67899 25 8.27737 24.9852 7.01772 24.925C5.7613 24.8648 4.90221 24.6523 4.15051 24.3432C3.36221 24.0295 2.64798 23.5378 2.05755 22.9023C1.45659 22.278 0.991539 21.5226 0.694815 20.6886C0.403798 19.8932 0.204059 18.9841 0.14607 17.6545C0.0880817 16.3193 0.0751953 15.8943 0.0751953 12.5C0.0751953 9.10455 0.0891555 8.67955 0.14607 7.34773C0.202985 6.01591 0.403798 5.10682 0.694815 4.31136C0.991977 3.47737 1.45739 2.72195 2.05862 2.09773C2.64822 1.46193 3.36173 0.969822 4.14943 0.655682C4.90114 0.347727 5.76023 0.136364 7.01665 0.075H7.01772ZM16.661 2.325C15.4153 2.26477 15.0416 2.25227 11.8877 2.25227C8.73376 2.25227 8.36005 2.26477 7.11437 2.325C5.96212 2.38068 5.33713 2.58409 4.92047 2.75568C4.36958 2.98295 3.97547 3.25227 3.56203 3.68977C3.17012 4.09324 2.86851 4.58441 2.67931 5.12727C2.51716 5.56818 2.32494 6.22955 2.27232 7.44886C2.21541 8.76705 2.20359 9.1625 2.20359 12.5C2.20359 15.8375 2.21541 16.233 2.27232 17.5511C2.32494 18.7705 2.51716 19.4318 2.67931 19.8727C2.86831 20.4148 3.17007 20.9068 3.56203 21.3102C3.94325 21.725 4.40824 22.0443 4.92047 22.2443C5.33713 22.4159 5.96212 22.6193 7.11437 22.675C8.36005 22.7352 8.73268 22.7477 11.8877 22.7477C15.0427 22.7477 15.4153 22.7352 16.661 22.675C17.8133 22.6193 18.4383 22.4159 18.8549 22.2443C19.4058 22.017 19.7999 21.7477 20.2134 21.3102C20.6053 20.9068 20.9071 20.4148 21.0961 19.8727C21.2582 19.4318 21.4505 18.7705 21.5031 17.5511C21.56 16.233 21.5718 15.8375 21.5718 12.5C21.5718 9.1625 21.56 8.76705 21.5031 7.44886C21.4505 6.22955 21.2582 5.56818 21.0961 5.12727C20.8813 4.54432 20.6268 4.12727 20.2134 3.68977C19.8321 3.27508 19.3679 2.95592 18.8549 2.75568C18.4383 2.58409 17.8133 2.38068 16.661 2.325ZM10.3789 16.3534C11.2215 16.7246 12.1598 16.7747 13.0334 16.4951C13.9071 16.2156 14.6619 15.6238 15.169 14.8207C15.6761 14.0177 15.904 13.0533 15.8138 12.0922C15.7236 11.1311 15.3208 10.2329 14.6744 9.55114C14.2623 9.11531 13.764 8.7816 13.2153 8.57403C12.6667 8.36646 12.0815 8.29018 11.5016 8.3507C10.9218 8.41122 10.3619 8.60702 9.86218 8.92401C9.36246 9.241 8.93537 9.6713 8.61166 10.1839C8.28796 10.6965 8.07568 11.2787 7.99012 11.8886C7.90457 12.4984 7.94785 13.1208 8.11687 13.7108C8.28588 14.3008 8.57642 14.8439 8.96756 15.3008C9.3587 15.7578 9.84072 16.1173 10.3789 16.3534ZM7.59439 7.95682C8.15819 7.3602 8.82753 6.88694 9.56417 6.56405C10.3008 6.24116 11.0904 6.07497 11.8877 6.07497C12.685 6.07497 13.4746 6.24116 14.2112 6.56405C14.9479 6.88693 15.6172 7.3602 16.181 7.95682C16.7448 8.55344 17.192 9.26173 17.4972 10.0412C17.8023 10.8208 17.9593 11.6563 17.9593 12.5C17.9593 13.3437 17.8023 14.1792 17.4972 14.9588C17.192 15.7383 16.7448 16.4466 16.181 17.0432C15.0423 18.2481 13.498 18.925 11.8877 18.925C10.2774 18.925 8.73304 18.2481 7.59439 17.0432C6.45573 15.8383 5.81604 14.204 5.81604 12.5C5.81604 10.796 6.45573 9.16175 7.59439 7.95682ZM19.3059 7.03182C19.4457 6.89235 19.5575 6.72464 19.6349 6.53861C19.7122 6.35258 19.7535 6.15201 19.7563 5.94878C19.7591 5.74556 19.7234 5.5438 19.6512 5.35547C19.579 5.16713 19.4718 4.99603 19.336 4.85232C19.2002 4.7086 19.0385 4.59518 18.8605 4.51877C18.6825 4.44236 18.4919 4.40452 18.2998 4.40748C18.1078 4.41044 17.9182 4.45415 17.7424 4.53602C17.5666 4.61789 17.4081 4.73624 17.2763 4.88409C17.02 5.17162 16.8797 5.55355 16.8851 5.94878C16.8906 6.34402 17.0414 6.72145 17.3055 7.00096C17.5696 7.28046 17.9263 7.44003 18.2998 7.44579C18.6733 7.45156 19.0342 7.30306 19.3059 7.03182Z" fill="#F4EBDB"/>
</svg>
