<svg width="34" height="21" viewBox="0 0 34 21" fill="none" xmlns="http://www.w3.org/2000/svg">
<path fill-rule="evenodd" clip-rule="evenodd" d="M32.3164 1.3825C32.5451 0.58625 32.3164 0 31.2208 0H27.6033C26.6827 0 26.2582 0.506042 26.0281 1.06458C26.0281 1.06458 24.1883 5.72542 21.5824 8.75292C20.739 9.63083 20.3559 9.90937 19.8956 9.90937C19.6654 9.90937 19.3195 9.63083 19.3195 8.83313V1.3825C19.3195 0.425833 19.066 0 18.2997 0H12.611C12.0363 0 11.6904 0.443333 11.6904 0.864792C11.6904 1.77042 12.9941 1.98042 13.1277 4.52958V10.0683C13.1277 11.2831 12.9169 11.5033 12.4566 11.5033C11.2301 11.5033 8.24653 6.82062 6.47567 1.46271C6.13253 0.42 5.78525 0 4.86055 0H1.24029C0.206714 0 0 0.506042 0 1.06458C0 2.05917 1.22651 7 5.71221 13.5348C8.70268 17.9973 12.9128 20.4167 16.748 20.4167C19.048 20.4167 19.3319 19.88 19.3319 18.954V15.5808C19.3319 14.506 19.5497 14.2917 20.2787 14.2917C20.8161 14.2917 21.7353 14.5717 23.8824 16.7227C26.3354 19.2733 26.7392 20.4167 28.1201 20.4167H31.7376C32.7711 20.4167 33.2893 19.88 32.9916 18.8183C32.6636 17.7625 31.4923 16.2298 29.9391 14.4112C29.0957 13.3758 27.8307 12.2602 27.4462 11.7017C26.9101 10.9856 27.0631 10.6662 27.4462 10.029C27.4462 10.029 31.8561 3.57437 32.315 1.3825H32.3164Z" fill="#537173"/>
<path fill-rule="evenodd" clip-rule="evenodd" d="M32.3164 1.3825C32.5451 0.58625 32.3164 0 31.2208 0H27.6033C26.6827 0 26.2582 0.506042 26.0281 1.06458C26.0281 1.06458 24.1883 5.72542 21.5824 8.75292C20.739 9.63083 20.3559 9.90937 19.8956 9.90937C19.6654 9.90937 19.3195 9.63083 19.3195 8.83313V1.3825C19.3195 0.425833 19.066 0 18.2997 0H12.611C12.0363 0 11.6904 0.443333 11.6904 0.864792C11.6904 1.77042 12.9941 1.98042 13.1277 4.52958V10.0683C13.1277 11.2831 12.9169 11.5033 12.4566 11.5033C11.2301 11.5033 8.24653 6.82062 6.47567 1.46271C6.13253 0.42 5.78525 0 4.86055 0H1.24029C0.206714 0 0 0.506042 0 1.06458C0 2.05917 1.22651 7 5.71221 13.5348C8.70268 17.9973 12.9128 20.4167 16.748 20.4167C19.048 20.4167 19.3319 19.88 19.3319 18.954V15.5808C19.3319 14.506 19.5497 14.2917 20.2787 14.2917C20.8161 14.2917 21.7353 14.5717 23.8824 16.7227C26.3354 19.2733 26.7392 20.4167 28.1201 20.4167H31.7376C32.7711 20.4167 33.2893 19.88 32.9916 18.8183C32.6636 17.7625 31.4923 16.2298 29.9391 14.4112C29.0957 13.3758 27.8307 12.2602 27.4462 11.7017C26.9101 10.9856 27.0631 10.6662 27.4462 10.029C27.4462 10.029 31.8561 3.57437 32.315 1.3825H32.3164Z" fill="black" fill-opacity="0.5"/>
</svg>
